<svg xmlns="http://www.w3.org/2000/svg" xmlns:xlink="http://www.w3.org/1999/xlink" width="378" zoomAndPan="magnify" viewBox="0 0 283.5 283.500005" height="378" preserveAspectRatio="xMidYMid meet" version="1.0"><defs><g/><clipPath id="ed955ca281"><path d="M 0.6875 0.882812 L 200.492188 0.882812 L 200.492188 102.941406 L 0.6875 102.941406 Z M 0.6875 0.882812 " clip-rule="nonzero"/></clipPath><clipPath id="dcbae58c96"><path d="M 0.832031 1.011719 L 30.242188 1.011719 L 30.242188 30.394531 L 0.832031 30.394531 Z M 0.832031 1.011719 " clip-rule="nonzero"/></clipPath><clipPath id="3e6c41861c"><path d="M 0.832031 0.0117188 L 30.242188 0.0117188 L 30.242188 29.394531 L 0.832031 29.394531 Z M 0.832031 0.0117188 " clip-rule="nonzero"/></clipPath><clipPath id="ec11cbc491"><rect x="0" width="31" y="0" height="30"/></clipPath><clipPath id="8ce96cfc2d"><path d="M 3 5.304688 L 29 5.304688 L 29 26 L 3 26 Z M 3 5.304688 " clip-rule="nonzero"/></clipPath><clipPath id="4b23067f78"><path d="M 0.832031 65.859375 L 30.242188 65.859375 L 30.242188 95.242188 L 0.832031 95.242188 Z M 0.832031 65.859375 " clip-rule="nonzero"/></clipPath><clipPath id="faa808ed2c"><path d="M 0.832031 0.859375 L 30.242188 0.859375 L 30.242188 30.242188 L 0.832031 30.242188 Z M 0.832031 0.859375 " clip-rule="nonzero"/></clipPath><clipPath id="a4892f630a"><rect x="0" width="31" y="0" height="31"/></clipPath><clipPath id="8a794ff891"><path d="M 3 70.152344 L 29 70.152344 L 29 91 L 3 91 Z M 3 70.152344 " clip-rule="nonzero"/></clipPath><clipPath id="0d96dc4233"><path d="M 0.832031 33.414062 L 30.242188 33.414062 L 30.242188 62.800781 L 0.832031 62.800781 Z M 0.832031 33.414062 " clip-rule="nonzero"/></clipPath><clipPath id="5104438091"><path d="M 0.832031 0.414062 L 30.242188 0.414062 L 30.242188 29.800781 L 0.832031 29.800781 Z M 0.832031 0.414062 " clip-rule="nonzero"/></clipPath><clipPath id="98efc6eed2"><rect x="0" width="31" y="0" height="30"/></clipPath><clipPath id="425ee8ba58"><path d="M 3 38 L 29 38 L 29 58.675781 L 3 58.675781 Z M 3 38 " clip-rule="nonzero"/></clipPath><clipPath id="05976bc56e"><path d="M 34 9 L 200.492188 9 L 200.492188 39 L 34 39 Z M 34 9 " clip-rule="nonzero"/></clipPath><clipPath id="59c833486c"><path d="M 0.226562 1 L 21 1 L 21 22 L 0.226562 22 Z M 0.226562 1 " clip-rule="nonzero"/></clipPath><clipPath id="db3525dbda"><rect x="0" width="167" y="0" height="30"/></clipPath><clipPath id="c13f98acb7"><rect x="0" width="104" y="0" height="30"/></clipPath><clipPath id="a6a6bb38ff"><path d="M 35 73 L 149 73 L 149 102.941406 L 35 102.941406 Z M 35 73 " clip-rule="nonzero"/></clipPath><clipPath id="8cae93c80d"><rect x="0" width="114" y="0" height="30"/></clipPath><clipPath id="f84e2ab096"><rect x="0" width="201" y="0" height="103"/></clipPath><clipPath id="41ee1509a7"><rect x="0" width="201" y="0" height="103"/></clipPath></defs><g transform="matrix(1, 0, 0, 1, 41, 88)"><g clip-path="url(#41ee1509a7)"><g clip-path="url(#ed955ca281)"><g transform="matrix(1, 0, 0, 1, 0.000000000000007105, 0.000000000000028422)"><g clip-path="url(#f84e2ab096)"><g clip-path="url(#dcbae58c96)"><g transform="matrix(1, 0, 0, 1, 0.000000000000007105, 1)"><g clip-path="url(#ec11cbc491)"><g clip-path="url(#3e6c41861c)"><path fill="#0a0034" d="M 0.832031 0.0117188 L 30.21875 0.0117188 L 30.21875 29.394531 L 0.832031 29.394531 Z M 0.832031 0.0117188 " fill-opacity="1" fill-rule="nonzero"/></g></g></g></g><g clip-path="url(#8ce96cfc2d)"><path fill="#2fa124" d="M 3.730469 18.226562 C 5.152344 19.304688 5.691406 19.457031 6.878906 21.085938 C 8.816406 23.746094 8.53125 24.851562 9.109375 25.355469 C 9.683594 25.863281 12.320312 26.273438 14.117188 23.957031 C 15.917969 21.640625 18.722656 15.246094 22.316406 11.410156 C 25.914062 7.574219 27.589844 6.460938 28.667969 5.882812 C 29.75 5.304688 26.332031 5.425781 19.609375 10.804688 C 14.933594 14.546875 11.625 19.710938 11.625 19.710938 C 11.625 19.710938 10.691406 16.886719 8.605469 15.003906 C 6.519531 13.125 1.378906 16.433594 3.730469 18.226562 Z M 3.730469 18.226562 " fill-opacity="1" fill-rule="nonzero"/></g><g clip-path="url(#4b23067f78)"><g transform="matrix(1, 0, 0, 1, 0.000000000000007105, 65)"><g clip-path="url(#a4892f630a)"><g clip-path="url(#faa808ed2c)"><path fill="#0a0034" d="M 0.832031 0.859375 L 30.21875 0.859375 L 30.21875 30.242188 L 0.832031 30.242188 Z M 0.832031 0.859375 " fill-opacity="1" fill-rule="nonzero"/></g></g></g></g><g clip-path="url(#8a794ff891)"><path fill="#2fa124" d="M 3.730469 83.074219 C 5.152344 84.152344 5.691406 84.304688 6.878906 85.933594 C 8.816406 88.59375 8.53125 89.699219 9.109375 90.203125 C 9.683594 90.710938 12.320312 91.121094 14.117188 88.804688 C 15.917969 86.488281 18.722656 80.09375 22.316406 76.257812 C 25.914062 72.421875 27.589844 71.308594 28.667969 70.730469 C 29.75 70.152344 26.332031 70.273438 19.609375 75.652344 C 14.933594 79.394531 11.625 84.558594 11.625 84.558594 C 11.625 84.558594 10.691406 81.734375 8.605469 79.851562 C 6.519531 77.972656 1.378906 81.28125 3.730469 83.074219 Z M 3.730469 83.074219 " fill-opacity="1" fill-rule="nonzero"/></g><g clip-path="url(#0d96dc4233)"><g transform="matrix(1, 0, 0, 1, 0.000000000000007105, 33)"><g clip-path="url(#98efc6eed2)"><g clip-path="url(#5104438091)"><path fill="#0a0034" d="M 0.832031 0.414062 L 30.21875 0.414062 L 30.21875 29.800781 L 0.832031 29.800781 Z M 0.832031 0.414062 " fill-opacity="1" fill-rule="nonzero"/></g></g></g></g><g clip-path="url(#425ee8ba58)"><path fill="#2fa124" d="M 3.730469 50.628906 C 5.152344 51.710938 5.691406 51.859375 6.878906 53.488281 C 8.816406 56.152344 8.53125 57.253906 9.109375 57.761719 C 9.683594 58.269531 12.320312 58.679688 14.117188 56.363281 C 15.917969 54.046875 18.722656 47.652344 22.316406 43.8125 C 25.914062 39.976562 27.589844 38.867188 28.667969 38.289062 C 29.75 37.707031 26.332031 37.832031 19.609375 43.210938 C 14.933594 46.949219 11.625 52.113281 11.625 52.113281 C 11.625 52.113281 10.691406 49.289062 8.605469 47.410156 C 6.519531 45.527344 1.378906 48.839844 3.730469 50.628906 Z M 3.730469 50.628906 " fill-opacity="1" fill-rule="nonzero"/></g><g clip-path="url(#05976bc56e)"><g transform="matrix(1, 0, 0, 1, 34, 9)"><g clip-path="url(#db3525dbda)"><g clip-path="url(#59c833486c)"><g fill="#0a0034" fill-opacity="1"><g transform="translate(0.251172, 21.521803)"><g><path d="M 3.671875 -3.96875 L 10.390625 -20.203125 L 10.6875 -20.203125 L 17.375 -3.90625 C 17.8125 -2.8125 18.25 -1.972656 18.6875 -1.390625 C 19.125 -0.804688 19.691406 -0.515625 20.390625 -0.515625 L 20.390625 0 L 11.09375 0 L 11.09375 -0.515625 C 12.019531 -0.535156 12.632812 -0.609375 12.9375 -0.734375 C 13.25 -0.859375 13.40625 -1.144531 13.40625 -1.59375 C 13.40625 -1.726562 13.367188 -1.878906 13.296875 -2.046875 C 13.234375 -2.222656 13.179688 -2.367188 13.140625 -2.484375 L 11.90625 -5.609375 L 5.53125 -5.609375 L 4.625 -3.453125 C 4.363281 -2.910156 4.234375 -2.4375 4.234375 -2.03125 C 4.234375 -1.425781 4.453125 -1.019531 4.890625 -0.8125 C 5.335938 -0.613281 5.96875 -0.515625 6.78125 -0.515625 L 6.78125 0 L 0.40625 0 L 0.40625 -0.515625 C 1.0625 -0.578125 1.648438 -0.878906 2.171875 -1.421875 C 2.691406 -1.960938 3.191406 -2.8125 3.671875 -3.96875 Z M 11.46875 -6.6875 L 8.71875 -13.34375 L 5.96875 -6.6875 Z M 11.46875 -6.6875 "/></g></g></g></g><g fill="#0a0034" fill-opacity="1"><g transform="translate(21.062451, 21.521803)"><g><path d="M 7.296875 -13.75 C 8.140625 -13.75 8.921875 -13.59375 9.640625 -13.28125 C 10.359375 -12.976562 10.921875 -12.570312 11.328125 -12.0625 C 11.742188 -11.550781 11.953125 -10.984375 11.953125 -10.359375 C 11.953125 -9.859375 11.78125 -9.441406 11.4375 -9.109375 C 11.101562 -8.785156 10.6875 -8.625 10.1875 -8.625 C 9.457031 -8.625 8.890625 -8.941406 8.484375 -9.578125 C 8.328125 -9.816406 8.21875 -10.050781 8.15625 -10.28125 C 8.101562 -10.507812 8.054688 -10.789062 8.015625 -11.125 C 7.984375 -11.445312 7.941406 -11.695312 7.890625 -11.875 C 7.835938 -12.0625 7.742188 -12.222656 7.609375 -12.359375 C 7.359375 -12.609375 7.050781 -12.734375 6.6875 -12.734375 C 5.914062 -12.734375 5.351562 -12.320312 5 -11.5 C 4.65625 -10.6875 4.484375 -9.703125 4.484375 -8.546875 C 4.484375 -7.617188 4.625 -6.632812 4.90625 -5.59375 C 5.1875 -4.5625 5.644531 -3.675781 6.28125 -2.9375 C 6.914062 -2.195312 7.726562 -1.828125 8.71875 -1.828125 C 9.332031 -1.828125 9.859375 -1.925781 10.296875 -2.125 C 10.742188 -2.332031 11.269531 -2.753906 11.875 -3.390625 L 12.328125 -3.0625 C 11.710938 -1.945312 10.9375 -1.085938 10 -0.484375 C 9.0625 0.109375 8.015625 0.40625 6.859375 0.40625 C 5.679688 0.40625 4.625 0.117188 3.6875 -0.453125 C 2.75 -1.035156 2.015625 -1.84375 1.484375 -2.875 C 0.953125 -3.914062 0.6875 -5.09375 0.6875 -6.40625 C 0.6875 -7.769531 0.976562 -9.015625 1.5625 -10.140625 C 2.144531 -11.273438 2.9375 -12.160156 3.9375 -12.796875 C 4.9375 -13.429688 6.054688 -13.75 7.296875 -13.75 Z M 7.296875 -13.75 "/></g></g></g><g fill="#0a0034" fill-opacity="1"><g transform="translate(33.740248, 21.521803)"><g><path d="M 7.296875 -13.75 C 8.140625 -13.75 8.921875 -13.59375 9.640625 -13.28125 C 10.359375 -12.976562 10.921875 -12.570312 11.328125 -12.0625 C 11.742188 -11.550781 11.953125 -10.984375 11.953125 -10.359375 C 11.953125 -9.859375 11.78125 -9.441406 11.4375 -9.109375 C 11.101562 -8.785156 10.6875 -8.625 10.1875 -8.625 C 9.457031 -8.625 8.890625 -8.941406 8.484375 -9.578125 C 8.328125 -9.816406 8.21875 -10.050781 8.15625 -10.28125 C 8.101562 -10.507812 8.054688 -10.789062 8.015625 -11.125 C 7.984375 -11.445312 7.941406 -11.695312 7.890625 -11.875 C 7.835938 -12.0625 7.742188 -12.222656 7.609375 -12.359375 C 7.359375 -12.609375 7.050781 -12.734375 6.6875 -12.734375 C 5.914062 -12.734375 5.351562 -12.320312 5 -11.5 C 4.65625 -10.6875 4.484375 -9.703125 4.484375 -8.546875 C 4.484375 -7.617188 4.625 -6.632812 4.90625 -5.59375 C 5.1875 -4.5625 5.644531 -3.675781 6.28125 -2.9375 C 6.914062 -2.195312 7.726562 -1.828125 8.71875 -1.828125 C 9.332031 -1.828125 9.859375 -1.925781 10.296875 -2.125 C 10.742188 -2.332031 11.269531 -2.753906 11.875 -3.390625 L 12.328125 -3.0625 C 11.710938 -1.945312 10.9375 -1.085938 10 -0.484375 C 9.0625 0.109375 8.015625 0.40625 6.859375 0.40625 C 5.679688 0.40625 4.625 0.117188 3.6875 -0.453125 C 2.75 -1.035156 2.015625 -1.84375 1.484375 -2.875 C 0.953125 -3.914062 0.6875 -5.09375 0.6875 -6.40625 C 0.6875 -7.769531 0.976562 -9.015625 1.5625 -10.140625 C 2.144531 -11.273438 2.9375 -12.160156 3.9375 -12.796875 C 4.9375 -13.429688 6.054688 -13.75 7.296875 -13.75 Z M 7.296875 -13.75 "/></g></g></g><g fill="#0a0034" fill-opacity="1"><g transform="translate(46.418045, 21.521803)"><g><path d="M 7.1875 -13.75 C 8.363281 -13.75 9.4375 -13.46875 10.40625 -12.90625 C 11.382812 -12.351562 12.164062 -11.539062 12.75 -10.46875 C 13.34375 -9.394531 13.640625 -8.113281 13.640625 -6.625 C 13.640625 -5.039062 13.3125 -3.722656 12.65625 -2.671875 C 12 -1.617188 11.179688 -0.84375 10.203125 -0.34375 C 9.234375 0.15625 8.265625 0.40625 7.296875 0.40625 C 6.234375 0.40625 5.203125 0.128906 4.203125 -0.421875 C 3.210938 -0.972656 2.40625 -1.78125 1.78125 -2.84375 C 1.15625 -3.914062 0.84375 -5.207031 0.84375 -6.71875 C 0.84375 -8.070312 1.113281 -9.273438 1.65625 -10.328125 C 2.195312 -11.390625 2.945312 -12.222656 3.90625 -12.828125 C 4.875 -13.441406 5.96875 -13.75 7.1875 -13.75 Z M 5.015625 -7.296875 C 5.015625 -5.554688 5.070312 -4.21875 5.1875 -3.28125 C 5.300781 -2.34375 5.515625 -1.660156 5.828125 -1.234375 C 6.148438 -0.816406 6.617188 -0.609375 7.234375 -0.609375 C 7.796875 -0.609375 8.238281 -0.78125 8.5625 -1.125 C 8.894531 -1.476562 9.128906 -2.046875 9.265625 -2.828125 C 9.398438 -3.609375 9.46875 -4.671875 9.46875 -6.015625 C 9.46875 -7.753906 9.414062 -9.082031 9.3125 -10 C 9.21875 -10.914062 9.003906 -11.597656 8.671875 -12.046875 C 8.347656 -12.503906 7.851562 -12.734375 7.1875 -12.734375 C 6.332031 -12.734375 5.753906 -12.273438 5.453125 -11.359375 C 5.160156 -10.441406 5.015625 -9.085938 5.015625 -7.296875 Z M 5.015625 -7.296875 "/></g></g></g><g fill="#0a0034" fill-opacity="1"><g transform="translate(60.890425, 21.521803)"><g><path d="M 9.578125 -13.75 C 10.472656 -13.75 11.210938 -13.53125 11.796875 -13.09375 C 12.390625 -12.664062 12.769531 -12.066406 12.9375 -11.296875 C 13.476562 -12.085938 14.113281 -12.691406 14.84375 -13.109375 C 15.582031 -13.535156 16.347656 -13.75 17.140625 -13.75 C 18.273438 -13.75 19.140625 -13.390625 19.734375 -12.671875 C 20.335938 -11.960938 20.640625 -11.097656 20.640625 -10.078125 L 20.640625 -2.0625 C 20.640625 -1.613281 20.738281 -1.25 20.9375 -0.96875 C 21.144531 -0.6875 21.472656 -0.535156 21.921875 -0.515625 L 21.921875 0 L 15.4375 0 L 15.4375 -0.515625 C 15.9375 -0.535156 16.265625 -0.664062 16.421875 -0.90625 C 16.585938 -1.15625 16.671875 -1.585938 16.671875 -2.203125 L 16.671875 -10.390625 C 16.671875 -10.703125 16.582031 -11.023438 16.40625 -11.359375 C 16.238281 -11.703125 15.941406 -11.875 15.515625 -11.875 C 15.109375 -11.875 14.734375 -11.742188 14.390625 -11.484375 C 14.046875 -11.222656 13.640625 -10.765625 13.171875 -10.109375 L 13.171875 -2.265625 C 13.171875 -1.210938 13.585938 -0.628906 14.421875 -0.515625 L 14.421875 0 L 7.984375 0 L 7.984375 -0.515625 C 8.796875 -0.617188 9.203125 -1.226562 9.203125 -2.34375 L 9.203125 -10.25 C 9.203125 -10.695312 9.101562 -11.070312 8.90625 -11.375 C 8.71875 -11.6875 8.40625 -11.84375 7.96875 -11.84375 C 7.207031 -11.84375 6.453125 -11.265625 5.703125 -10.109375 L 5.703125 -2.28125 C 5.703125 -1.21875 6.128906 -0.628906 6.984375 -0.515625 L 6.984375 0 L 0.40625 0 L 0.40625 -0.515625 C 0.863281 -0.578125 1.195312 -0.738281 1.40625 -1 C 1.625 -1.257812 1.734375 -1.71875 1.734375 -2.375 L 1.734375 -10.96875 C 1.734375 -11.664062 1.617188 -12.15625 1.390625 -12.4375 C 1.160156 -12.71875 0.832031 -12.875 0.40625 -12.90625 L 0.40625 -13.4375 L 5.703125 -13.4375 L 5.703125 -11.546875 L 5.765625 -11.546875 C 6.359375 -12.316406 6.960938 -12.875 7.578125 -13.21875 C 8.203125 -13.570312 8.867188 -13.75 9.578125 -13.75 Z M 9.578125 -13.75 "/></g></g></g><g fill="#0a0034" fill-opacity="1"><g transform="translate(83.206825, 21.521803)"><g><path d="M 9.125 -13.75 C 10.007812 -13.75 10.800781 -13.441406 11.5 -12.828125 C 12.207031 -12.210938 12.765625 -11.367188 13.171875 -10.296875 C 13.578125 -9.222656 13.78125 -8.007812 13.78125 -6.65625 C 13.78125 -5.070312 13.515625 -3.75 12.984375 -2.6875 C 12.453125 -1.625 11.804688 -0.84375 11.046875 -0.34375 C 10.285156 0.15625 9.535156 0.40625 8.796875 0.40625 C 7.640625 0.40625 6.722656 -0.101562 6.046875 -1.125 L 6 -1.125 L 6 3.90625 C 6 4.5625 6.132812 5.003906 6.40625 5.234375 C 6.6875 5.472656 7.222656 5.597656 8.015625 5.609375 L 8.015625 6.140625 L 0.4375 6.140625 L 0.4375 5.609375 C 1 5.609375 1.40625 5.472656 1.65625 5.203125 C 1.90625 4.941406 2.03125 4.5 2.03125 3.875 L 2.03125 -11.171875 C 2.03125 -11.804688 1.898438 -12.253906 1.640625 -12.515625 C 1.378906 -12.773438 0.976562 -12.90625 0.4375 -12.90625 L 0.4375 -13.4375 L 6 -13.4375 L 6 -11.84375 L 6.046875 -11.84375 C 6.816406 -13.113281 7.84375 -13.75 9.125 -13.75 Z M 6 -10.3125 L 6 -2.40625 C 6.75 -1.457031 7.410156 -0.984375 7.984375 -0.984375 C 8.609375 -0.984375 9.035156 -1.394531 9.265625 -2.21875 C 9.492188 -3.039062 9.609375 -4.460938 9.609375 -6.484375 C 9.609375 -8.429688 9.46875 -9.835938 9.1875 -10.703125 C 8.90625 -11.578125 8.4375 -12.015625 7.78125 -12.015625 C 7.4375 -12.015625 7.097656 -11.835938 6.765625 -11.484375 C 6.441406 -11.140625 6.1875 -10.75 6 -10.3125 Z M 6 -10.3125 "/></g></g></g><g fill="#0a0034" fill-opacity="1"><g transform="translate(97.679205, 21.521803)"><g><path d="M 6.078125 -1.9375 C 6.078125 -1.457031 6.191406 -1.097656 6.421875 -0.859375 C 6.660156 -0.628906 7.03125 -0.515625 7.53125 -0.515625 L 7.53125 0 L 0.34375 0 L 0.34375 -0.515625 C 0.945312 -0.515625 1.390625 -0.644531 1.671875 -0.90625 C 1.960938 -1.164062 2.109375 -1.566406 2.109375 -2.109375 L 2.109375 -17.609375 C 2.109375 -18.265625 1.976562 -18.71875 1.71875 -18.96875 C 1.457031 -19.21875 1 -19.351562 0.34375 -19.375 L 0.34375 -19.890625 L 6.078125 -19.890625 Z M 6.078125 -1.9375 "/></g></g></g><g fill="#0a0034" fill-opacity="1"><g transform="translate(105.523236, 21.521803)"><g><path d="M 4.078125 -20.328125 C 4.703125 -20.328125 5.226562 -20.109375 5.65625 -19.671875 C 6.09375 -19.234375 6.3125 -18.707031 6.3125 -18.09375 C 6.3125 -17.476562 6.09375 -16.945312 5.65625 -16.5 C 5.226562 -16.0625 4.703125 -15.84375 4.078125 -15.84375 C 3.460938 -15.84375 2.929688 -16.0625 2.484375 -16.5 C 2.046875 -16.945312 1.828125 -17.476562 1.828125 -18.09375 C 1.828125 -18.707031 2.046875 -19.234375 2.484375 -19.671875 C 2.929688 -20.109375 3.460938 -20.328125 4.078125 -20.328125 Z M 6 -2.203125 C 6 -1.097656 6.476562 -0.535156 7.4375 -0.515625 L 7.4375 0 L 0.34375 0 L 0.34375 -0.515625 C 0.945312 -0.515625 1.378906 -0.648438 1.640625 -0.921875 C 1.898438 -1.191406 2.03125 -1.664062 2.03125 -2.34375 L 2.03125 -11.125 C 2.03125 -11.757812 1.90625 -12.210938 1.65625 -12.484375 C 1.40625 -12.765625 0.96875 -12.90625 0.34375 -12.90625 L 0.34375 -13.4375 L 6 -13.4375 Z M 6 -2.203125 "/></g></g></g><g fill="#0a0034" fill-opacity="1"><g transform="translate(113.367267, 21.521803)"><g><path d="M 4.8125 -13.75 C 5.289062 -13.75 5.707031 -13.703125 6.0625 -13.609375 C 6.414062 -13.515625 6.847656 -13.367188 7.359375 -13.171875 C 7.742188 -12.992188 8.015625 -12.90625 8.171875 -12.90625 C 8.398438 -12.90625 8.59375 -12.972656 8.75 -13.109375 C 8.914062 -13.242188 9.097656 -13.457031 9.296875 -13.75 L 9.609375 -13.75 L 9.84375 -9.203125 L 9.5 -9.203125 C 9.070312 -10.304688 8.457031 -11.171875 7.65625 -11.796875 C 6.851562 -12.421875 5.976562 -12.734375 5.03125 -12.734375 C 4.476562 -12.734375 4.039062 -12.601562 3.71875 -12.34375 C 3.40625 -12.082031 3.25 -11.75 3.25 -11.34375 C 3.25 -10.84375 3.484375 -10.414062 3.953125 -10.0625 C 4.421875 -9.71875 5.140625 -9.328125 6.109375 -8.890625 C 7.078125 -8.441406 7.859375 -8.023438 8.453125 -7.640625 C 9.054688 -7.253906 9.570312 -6.753906 10 -6.140625 C 10.4375 -5.535156 10.65625 -4.800781 10.65625 -3.9375 C 10.65625 -3.125 10.453125 -2.382812 10.046875 -1.71875 C 9.640625 -1.050781 9.078125 -0.53125 8.359375 -0.15625 C 7.648438 0.21875 6.863281 0.40625 6 0.40625 C 5.457031 0.40625 4.96875 0.347656 4.53125 0.234375 C 4.09375 0.117188 3.644531 -0.0351562 3.1875 -0.234375 C 3.125 -0.253906 2.976562 -0.304688 2.75 -0.390625 C 2.519531 -0.472656 2.328125 -0.515625 2.171875 -0.515625 C 1.828125 -0.515625 1.53125 -0.21875 1.28125 0.375 L 1.015625 0.375 L 0.6875 -4.40625 L 1.015625 -4.40625 C 1.515625 -3.1875 2.171875 -2.25 2.984375 -1.59375 C 3.796875 -0.9375 4.679688 -0.609375 5.640625 -0.609375 C 6.242188 -0.609375 6.742188 -0.769531 7.140625 -1.09375 C 7.535156 -1.425781 7.734375 -1.832031 7.734375 -2.3125 C 7.734375 -2.800781 7.582031 -3.179688 7.28125 -3.453125 C 6.976562 -3.734375 6.507812 -4.050781 5.875 -4.40625 C 5.601562 -4.550781 5.351562 -4.675781 5.125 -4.78125 C 4.894531 -4.894531 4.703125 -4.988281 4.546875 -5.0625 C 3.660156 -5.488281 2.957031 -5.867188 2.4375 -6.203125 C 1.914062 -6.546875 1.460938 -6.992188 1.078125 -7.546875 C 0.703125 -8.109375 0.515625 -8.804688 0.515625 -9.640625 C 0.515625 -10.816406 0.914062 -11.796875 1.71875 -12.578125 C 2.519531 -13.359375 3.550781 -13.75 4.8125 -13.75 Z M 4.8125 -13.75 "/></g></g></g><g fill="#0a0034" fill-opacity="1"><g transform="translate(124.510991, 21.521803)"><g><path d="M 5.640625 -11.640625 L 5.703125 -11.640625 C 6.742188 -13.046875 7.988281 -13.75 9.4375 -13.75 C 10.695312 -13.75 11.613281 -13.34375 12.1875 -12.53125 C 12.769531 -11.726562 13.0625 -10.695312 13.0625 -9.4375 L 13.0625 -2.03125 C 13.0625 -1.675781 13.15625 -1.359375 13.34375 -1.078125 C 13.539062 -0.804688 13.800781 -0.617188 14.125 -0.515625 L 14.125 0 L 7.875 0 L 7.875 -0.515625 C 8.320312 -0.628906 8.632812 -0.804688 8.8125 -1.046875 C 9 -1.296875 9.09375 -1.738281 9.09375 -2.375 L 9.09375 -10.078125 C 9.09375 -11.273438 8.675781 -11.875 7.84375 -11.875 C 7.5 -11.875 7.148438 -11.742188 6.796875 -11.484375 C 6.453125 -11.222656 6.066406 -10.789062 5.640625 -10.1875 L 5.640625 -2.34375 C 5.640625 -1.78125 5.734375 -1.351562 5.921875 -1.0625 C 6.109375 -0.78125 6.410156 -0.597656 6.828125 -0.515625 L 6.828125 0 L 0.5 0 L 0.5 -0.515625 C 0.84375 -0.617188 1.09375 -0.738281 1.25 -0.875 C 1.40625 -1.007812 1.515625 -1.222656 1.578125 -1.515625 C 1.640625 -1.816406 1.671875 -2.273438 1.671875 -2.890625 L 1.671875 -17.65625 C 1.671875 -18.238281 1.566406 -18.648438 1.359375 -18.890625 C 1.148438 -19.128906 0.863281 -19.289062 0.5 -19.375 L 0.5 -19.890625 L 5.640625 -19.890625 Z M 5.640625 -11.640625 "/></g></g></g><g fill="#0a0034" fill-opacity="1"><g transform="translate(138.983372, 21.521803)"><g><path d="M 6.71875 -13.75 C 7.894531 -13.75 8.882812 -13.445312 9.6875 -12.84375 C 10.488281 -12.25 11.09375 -11.484375 11.5 -10.546875 C 11.90625 -9.617188 12.113281 -8.648438 12.125 -7.640625 L 12.125 -7.15625 L 4.515625 -7.15625 C 4.628906 -5.550781 5.046875 -4.253906 5.765625 -3.265625 C 6.492188 -2.285156 7.398438 -1.796875 8.484375 -1.796875 C 9.179688 -1.796875 9.773438 -1.984375 10.265625 -2.359375 C 10.753906 -2.734375 11.203125 -3.28125 11.609375 -4 L 12.125 -3.671875 C 11.46875 -2.285156 10.6875 -1.257812 9.78125 -0.59375 C 8.875 0.0703125 7.804688 0.40625 6.578125 0.40625 C 5.335938 0.40625 4.273438 0.101562 3.390625 -0.5 C 2.515625 -1.113281 1.84375 -1.941406 1.375 -2.984375 C 0.914062 -4.023438 0.6875 -5.191406 0.6875 -6.484375 C 0.6875 -7.773438 0.957031 -8.972656 1.5 -10.078125 C 2.039062 -11.191406 2.773438 -12.082031 3.703125 -12.75 C 4.628906 -13.414062 5.632812 -13.75 6.71875 -13.75 Z M 8.59375 -8.828125 C 8.59375 -10.203125 8.441406 -11.21875 8.140625 -11.875 C 7.847656 -12.53125 7.375 -12.859375 6.71875 -12.859375 C 6.019531 -12.859375 5.476562 -12.425781 5.09375 -11.5625 C 4.707031 -10.707031 4.515625 -9.71875 4.515625 -8.59375 L 4.515625 -8.109375 L 8.59375 -8.109375 Z M 8.59375 -8.828125 "/></g></g></g><g fill="#0a0034" fill-opacity="1"><g transform="translate(151.661169, 21.521803)"><g><path d="M 12.453125 -2.984375 C 12.453125 -2.367188 12.566406 -1.929688 12.796875 -1.671875 C 13.023438 -1.421875 13.457031 -1.296875 14.09375 -1.296875 L 14.09375 -0.78125 L 8.484375 0.375 L 8.484375 -1.5625 L 8.421875 -1.5625 C 8.117188 -0.925781 7.703125 -0.4375 7.171875 -0.09375 C 6.640625 0.238281 6.0625 0.40625 5.4375 0.40625 C 4.507812 0.40625 3.679688 0.0976562 2.953125 -0.515625 C 2.234375 -1.140625 1.671875 -2 1.265625 -3.09375 C 0.867188 -4.195312 0.671875 -5.441406 0.671875 -6.828125 C 0.671875 -8.273438 0.914062 -9.523438 1.40625 -10.578125 C 1.894531 -11.628906 2.523438 -12.421875 3.296875 -12.953125 C 4.066406 -13.484375 4.867188 -13.75 5.703125 -13.75 C 6.242188 -13.75 6.726562 -13.640625 7.15625 -13.421875 C 7.59375 -13.203125 8.035156 -12.835938 8.484375 -12.328125 L 8.484375 -17.625 C 8.484375 -18.320312 8.332031 -18.78125 8.03125 -19 C 7.726562 -19.226562 7.222656 -19.351562 6.515625 -19.375 L 6.515625 -19.890625 L 12.453125 -19.890625 Z M 4.828125 -7.296875 C 4.828125 -5.347656 4.972656 -3.867188 5.265625 -2.859375 C 5.554688 -1.859375 6.039062 -1.359375 6.71875 -1.359375 C 7.351562 -1.359375 7.941406 -1.925781 8.484375 -3.0625 L 8.484375 -10.65625 C 8.148438 -11.3125 7.816406 -11.769531 7.484375 -12.03125 C 7.160156 -12.289062 6.804688 -12.421875 6.421875 -12.421875 C 5.804688 -12.421875 5.382812 -11.976562 5.15625 -11.09375 C 4.9375 -10.21875 4.828125 -8.953125 4.828125 -7.296875 Z M 4.828125 -7.296875 "/></g></g></g></g></g></g><g transform="matrix(1, 0, 0, 1, 34, 41)"><g clip-path="url(#c13f98acb7)"><g fill="#0a0034" fill-opacity="1"><g transform="translate(0.251172, 21.553882)"><g><path d="M 18.5 -14.671875 L 17.984375 -14.671875 C 17.847656 -16.046875 17.414062 -17.078125 16.6875 -17.765625 C 15.96875 -18.460938 15.144531 -18.8125 14.21875 -18.8125 L 11.953125 -18.8125 L 11.953125 -3.125 C 11.953125 -2.414062 12.046875 -1.875 12.234375 -1.5 C 12.429688 -1.132812 12.734375 -0.882812 13.140625 -0.75 C 13.546875 -0.613281 14.117188 -0.535156 14.859375 -0.515625 L 14.859375 0 L 4.4375 0 L 4.4375 -0.515625 C 5.164062 -0.515625 5.726562 -0.566406 6.125 -0.671875 C 6.519531 -0.785156 6.816406 -1.023438 7.015625 -1.390625 C 7.222656 -1.753906 7.328125 -2.3125 7.328125 -3.0625 L 7.328125 -18.8125 L 4.828125 -18.8125 C 3.960938 -18.8125 3.191406 -18.429688 2.515625 -17.671875 C 1.835938 -16.910156 1.429688 -15.910156 1.296875 -14.671875 L 0.78125 -14.671875 L 0.78125 -19.890625 L 18.5 -19.890625 Z M 18.5 -14.671875 "/></g></g></g><g fill="#0a0034" fill-opacity="1"><g transform="translate(18.94942, 21.553882)"><g><path d="M 8.96875 -13.75 C 9.4375 -13.75 9.8125 -13.570312 10.09375 -13.21875 C 10.382812 -12.863281 10.53125 -12.40625 10.53125 -11.84375 C 10.53125 -11.238281 10.382812 -10.753906 10.09375 -10.390625 C 9.8125 -10.023438 9.421875 -9.84375 8.921875 -9.84375 C 8.679688 -9.84375 8.472656 -9.890625 8.296875 -9.984375 C 8.128906 -10.085938 7.921875 -10.222656 7.671875 -10.390625 C 7.304688 -10.640625 7.035156 -10.765625 6.859375 -10.765625 C 6.554688 -10.765625 6.296875 -10.515625 6.078125 -10.015625 C 5.867188 -9.515625 5.765625 -8.945312 5.765625 -8.3125 L 5.765625 -2.28125 C 5.765625 -1.644531 5.890625 -1.191406 6.140625 -0.921875 C 6.390625 -0.648438 6.84375 -0.515625 7.5 -0.515625 L 7.5 0 L 0.3125 0 L 0.3125 -0.515625 C 1.300781 -0.515625 1.796875 -1.097656 1.796875 -2.265625 L 1.796875 -11.171875 C 1.796875 -12.316406 1.300781 -12.894531 0.3125 -12.90625 L 0.3125 -13.4375 L 5.765625 -13.4375 L 5.765625 -11.03125 L 5.8125 -11.03125 C 6.726562 -12.84375 7.78125 -13.75 8.96875 -13.75 Z M 8.96875 -13.75 "/></g></g></g><g fill="#0a0034" fill-opacity="1"><g transform="translate(29.485246, 21.553882)"><g><path d="M 7.359375 -13.75 C 9.015625 -13.75 10.226562 -13.410156 11 -12.734375 C 11.769531 -12.054688 12.15625 -11.195312 12.15625 -10.15625 L 12.15625 -3.015625 C 12.15625 -1.953125 12.425781 -1.421875 12.96875 -1.421875 C 13.125 -1.421875 13.253906 -1.460938 13.359375 -1.546875 C 13.460938 -1.628906 13.582031 -1.78125 13.71875 -2 L 13.984375 -1.734375 C 13.710938 -1.078125 13.285156 -0.554688 12.703125 -0.171875 C 12.128906 0.210938 11.484375 0.40625 10.765625 0.40625 C 10.035156 0.40625 9.441406 0.222656 8.984375 -0.140625 C 8.535156 -0.503906 8.269531 -1.046875 8.1875 -1.765625 C 8.070312 -1.691406 7.898438 -1.554688 7.671875 -1.359375 C 6.992188 -0.796875 6.363281 -0.359375 5.78125 -0.046875 C 5.207031 0.253906 4.546875 0.40625 3.796875 0.40625 C 3.035156 0.40625 2.398438 0.132812 1.890625 -0.40625 C 1.378906 -0.945312 1.125 -1.601562 1.125 -2.375 C 1.125 -3.375 1.5625 -4.269531 2.4375 -5.0625 C 3.320312 -5.851562 4.285156 -6.492188 5.328125 -6.984375 L 8.1875 -8.375 L 8.1875 -11 C 8.1875 -11.476562 8.035156 -11.882812 7.734375 -12.21875 C 7.441406 -12.5625 6.976562 -12.734375 6.34375 -12.734375 C 5.78125 -12.734375 5.3125 -12.617188 4.9375 -12.390625 C 4.5625 -12.160156 4.375 -11.878906 4.375 -11.546875 C 4.375 -11.429688 4.40625 -11.316406 4.46875 -11.203125 C 4.539062 -11.085938 4.625 -10.972656 4.71875 -10.859375 C 4.894531 -10.640625 5.03125 -10.429688 5.125 -10.234375 C 5.21875 -10.046875 5.265625 -9.828125 5.265625 -9.578125 C 5.265625 -9.117188 5.09375 -8.742188 4.75 -8.453125 C 4.40625 -8.160156 3.953125 -8.015625 3.390625 -8.015625 C 2.773438 -8.015625 2.269531 -8.175781 1.875 -8.5 C 1.488281 -8.832031 1.296875 -9.269531 1.296875 -9.8125 C 1.296875 -10.507812 1.570312 -11.160156 2.125 -11.765625 C 2.675781 -12.378906 3.414062 -12.863281 4.34375 -13.21875 C 5.269531 -13.570312 6.273438 -13.75 7.359375 -13.75 Z M 5.0625 -3.625 C 5.0625 -3.15625 5.191406 -2.773438 5.453125 -2.484375 C 5.710938 -2.203125 6.046875 -2.0625 6.453125 -2.0625 C 6.785156 -2.0625 7.082031 -2.117188 7.34375 -2.234375 C 7.601562 -2.347656 7.882812 -2.53125 8.1875 -2.78125 L 8.1875 -7.359375 C 6.101562 -6.296875 5.0625 -5.050781 5.0625 -3.625 Z M 5.0625 -3.625 "/></g></g></g><g fill="#0a0034" fill-opacity="1"><g transform="translate(43.957626, 21.553882)"><g><path d="M 4.078125 -20.328125 C 4.703125 -20.328125 5.226562 -20.109375 5.65625 -19.671875 C 6.09375 -19.234375 6.3125 -18.707031 6.3125 -18.09375 C 6.3125 -17.476562 6.09375 -16.945312 5.65625 -16.5 C 5.226562 -16.0625 4.703125 -15.84375 4.078125 -15.84375 C 3.460938 -15.84375 2.929688 -16.0625 2.484375 -16.5 C 2.046875 -16.945312 1.828125 -17.476562 1.828125 -18.09375 C 1.828125 -18.707031 2.046875 -19.234375 2.484375 -19.671875 C 2.929688 -20.109375 3.460938 -20.328125 4.078125 -20.328125 Z M 6 -2.203125 C 6 -1.097656 6.476562 -0.535156 7.4375 -0.515625 L 7.4375 0 L 0.34375 0 L 0.34375 -0.515625 C 0.945312 -0.515625 1.378906 -0.648438 1.640625 -0.921875 C 1.898438 -1.191406 2.03125 -1.664062 2.03125 -2.34375 L 2.03125 -11.125 C 2.03125 -11.757812 1.90625 -12.210938 1.65625 -12.484375 C 1.40625 -12.765625 0.96875 -12.90625 0.34375 -12.90625 L 0.34375 -13.4375 L 6 -13.4375 Z M 6 -2.203125 "/></g></g></g><g fill="#0a0034" fill-opacity="1"><g transform="translate(51.801657, 21.553882)"><g><path d="M 9.4375 -13.75 C 10.59375 -13.75 11.472656 -13.359375 12.078125 -12.578125 C 12.691406 -11.796875 13 -10.835938 13 -9.703125 L 13 -2.78125 C 13 -2.21875 13.019531 -1.804688 13.0625 -1.546875 C 13.113281 -1.285156 13.203125 -1.085938 13.328125 -0.953125 C 13.453125 -0.816406 13.671875 -0.671875 13.984375 -0.515625 L 13.984375 0 L 7.8125 0 L 7.8125 -0.515625 C 8.625 -0.617188 9.03125 -1.238281 9.03125 -2.375 L 9.03125 -9.90625 C 9.03125 -11.238281 8.609375 -11.90625 7.765625 -11.90625 C 7.003906 -11.90625 6.269531 -11.351562 5.5625 -10.25 L 5.5625 -2.203125 C 5.5625 -1.234375 5.96875 -0.671875 6.78125 -0.515625 L 6.78125 0 L 0.5 0 L 0.5 -0.515625 C 0.84375 -0.597656 1.109375 -0.773438 1.296875 -1.046875 C 1.492188 -1.316406 1.59375 -1.75 1.59375 -2.34375 L 1.59375 -11.171875 C 1.59375 -11.554688 1.507812 -11.914062 1.34375 -12.25 C 1.175781 -12.59375 0.894531 -12.8125 0.5 -12.90625 L 0.5 -13.4375 L 5.5625 -13.4375 L 5.5625 -11.640625 C 6.175781 -12.347656 6.789062 -12.875 7.40625 -13.21875 C 8.03125 -13.570312 8.707031 -13.75 9.4375 -13.75 Z M 9.4375 -13.75 "/></g></g></g><g fill="#0a0034" fill-opacity="1"><g transform="translate(66.274037, 21.553882)"><g><path d="M 4.078125 -20.328125 C 4.703125 -20.328125 5.226562 -20.109375 5.65625 -19.671875 C 6.09375 -19.234375 6.3125 -18.707031 6.3125 -18.09375 C 6.3125 -17.476562 6.09375 -16.945312 5.65625 -16.5 C 5.226562 -16.0625 4.703125 -15.84375 4.078125 -15.84375 C 3.460938 -15.84375 2.929688 -16.0625 2.484375 -16.5 C 2.046875 -16.945312 1.828125 -17.476562 1.828125 -18.09375 C 1.828125 -18.707031 2.046875 -19.234375 2.484375 -19.671875 C 2.929688 -20.109375 3.460938 -20.328125 4.078125 -20.328125 Z M 6 -2.203125 C 6 -1.097656 6.476562 -0.535156 7.4375 -0.515625 L 7.4375 0 L 0.34375 0 L 0.34375 -0.515625 C 0.945312 -0.515625 1.378906 -0.648438 1.640625 -0.921875 C 1.898438 -1.191406 2.03125 -1.664062 2.03125 -2.34375 L 2.03125 -11.125 C 2.03125 -11.757812 1.90625 -12.210938 1.65625 -12.484375 C 1.40625 -12.765625 0.96875 -12.90625 0.34375 -12.90625 L 0.34375 -13.4375 L 6 -13.4375 Z M 6 -2.203125 "/></g></g></g><g fill="#0a0034" fill-opacity="1"><g transform="translate(74.118068, 21.553882)"><g><path d="M 9.4375 -13.75 C 10.59375 -13.75 11.472656 -13.359375 12.078125 -12.578125 C 12.691406 -11.796875 13 -10.835938 13 -9.703125 L 13 -2.78125 C 13 -2.21875 13.019531 -1.804688 13.0625 -1.546875 C 13.113281 -1.285156 13.203125 -1.085938 13.328125 -0.953125 C 13.453125 -0.816406 13.671875 -0.671875 13.984375 -0.515625 L 13.984375 0 L 7.8125 0 L 7.8125 -0.515625 C 8.625 -0.617188 9.03125 -1.238281 9.03125 -2.375 L 9.03125 -9.90625 C 9.03125 -11.238281 8.609375 -11.90625 7.765625 -11.90625 C 7.003906 -11.90625 6.269531 -11.351562 5.5625 -10.25 L 5.5625 -2.203125 C 5.5625 -1.234375 5.96875 -0.671875 6.78125 -0.515625 L 6.78125 0 L 0.5 0 L 0.5 -0.515625 C 0.84375 -0.597656 1.109375 -0.773438 1.296875 -1.046875 C 1.492188 -1.316406 1.59375 -1.75 1.59375 -2.34375 L 1.59375 -11.171875 C 1.59375 -11.554688 1.507812 -11.914062 1.34375 -12.25 C 1.175781 -12.59375 0.894531 -12.8125 0.5 -12.90625 L 0.5 -13.4375 L 5.5625 -13.4375 L 5.5625 -11.640625 C 6.175781 -12.347656 6.789062 -12.875 7.40625 -13.21875 C 8.03125 -13.570312 8.707031 -13.75 9.4375 -13.75 Z M 9.4375 -13.75 "/></g></g></g><g fill="#0a0034" fill-opacity="1"><g transform="translate(88.590448, 21.553882)"><g><path d="M 6.75 -13.75 C 7.269531 -13.75 7.726562 -13.703125 8.125 -13.609375 C 8.519531 -13.523438 8.929688 -13.398438 9.359375 -13.234375 L 13.84375 -13.234375 L 13.84375 -11.703125 L 11.265625 -11.703125 C 11.691406 -11.328125 12.023438 -10.90625 12.265625 -10.4375 C 12.503906 -9.96875 12.625 -9.40625 12.625 -8.75 C 12.625 -7.894531 12.363281 -7.109375 11.84375 -6.390625 C 11.320312 -5.679688 10.628906 -5.125 9.765625 -4.71875 C 8.910156 -4.3125 7.988281 -4.109375 7 -4.109375 C 6.75 -4.109375 6.5 -4.125 6.25 -4.15625 C 6 -4.1875 5.796875 -4.203125 5.640625 -4.203125 C 5.203125 -4.203125 4.820312 -4.0625 4.5 -3.78125 C 4.1875 -3.5 4.03125 -3.175781 4.03125 -2.8125 C 4.03125 -2.363281 4.195312 -2.054688 4.53125 -1.890625 C 4.863281 -1.734375 5.535156 -1.65625 6.546875 -1.65625 C 6.910156 -1.65625 7.320312 -1.671875 7.78125 -1.703125 L 8.65625 -1.734375 C 10.257812 -1.734375 11.523438 -1.453125 12.453125 -0.890625 C 13.378906 -0.335938 13.84375 0.566406 13.84375 1.828125 C 13.84375 3.035156 13.304688 4.054688 12.234375 4.890625 C 11.160156 5.722656 9.457031 6.140625 7.125 6.140625 C 5.15625 6.140625 3.625 5.914062 2.53125 5.46875 C 1.4375 5.03125 0.890625 4.375 0.890625 3.5 C 0.890625 3 1.0625 2.59375 1.40625 2.28125 C 1.757812 1.976562 2.332031 1.710938 3.125 1.484375 C 2.550781 1.171875 2.117188 0.8125 1.828125 0.40625 C 1.535156 0 1.390625 -0.484375 1.390625 -1.046875 C 1.390625 -1.796875 1.625 -2.4375 2.09375 -2.96875 C 2.570312 -3.5 3.378906 -4.023438 4.515625 -4.546875 C 3.429688 -4.929688 2.570312 -5.535156 1.9375 -6.359375 C 1.300781 -7.191406 0.984375 -8.101562 0.984375 -9.09375 C 0.984375 -9.9375 1.234375 -10.710938 1.734375 -11.421875 C 2.234375 -12.140625 2.921875 -12.707031 3.796875 -13.125 C 4.679688 -13.539062 5.664062 -13.75 6.75 -13.75 Z M 4.984375 -8.71875 C 4.984375 -6.25 5.617188 -5.015625 6.890625 -5.015625 C 7.546875 -5.015625 8.03125 -5.332031 8.34375 -5.96875 C 8.664062 -6.601562 8.828125 -7.554688 8.828125 -8.828125 C 8.828125 -10.316406 8.65625 -11.359375 8.3125 -11.953125 C 7.976562 -12.554688 7.503906 -12.859375 6.890625 -12.859375 C 5.617188 -12.859375 4.984375 -11.476562 4.984375 -8.71875 Z M 3.296875 3.21875 C 3.296875 3.851562 3.625 4.347656 4.28125 4.703125 C 4.9375 5.054688 5.960938 5.234375 7.359375 5.234375 C 8.648438 5.234375 9.671875 5.0625 10.421875 4.71875 C 11.171875 4.375 11.546875 3.882812 11.546875 3.25 C 11.546875 2.9375 11.457031 2.675781 11.28125 2.46875 C 11.113281 2.269531 10.75 2.109375 10.1875 1.984375 C 9.632812 1.859375 8.816406 1.796875 7.734375 1.796875 L 5.390625 1.796875 C 4.847656 1.796875 4.363281 1.90625 3.9375 2.125 C 3.507812 2.351562 3.296875 2.71875 3.296875 3.21875 Z M 3.296875 3.21875 "/></g></g></g></g></g><g clip-path="url(#a6a6bb38ff)"><g transform="matrix(1, 0, 0, 1, 35, 73)"><g clip-path="url(#8cae93c80d)"><g fill="#0a0034" fill-opacity="1"><g transform="translate(0.559636, 21.659045)"><g><path d="M 7.765625 -20.328125 C 8.671875 -20.328125 9.453125 -20.234375 10.109375 -20.046875 C 10.765625 -19.867188 11.488281 -19.613281 12.28125 -19.28125 C 12.550781 -19.164062 12.8125 -19.0625 13.0625 -18.96875 C 13.3125 -18.882812 13.519531 -18.84375 13.6875 -18.84375 C 14 -18.84375 14.25 -18.96875 14.4375 -19.21875 C 14.632812 -19.46875 14.734375 -19.835938 14.734375 -20.328125 L 15.28125 -20.328125 L 15.28125 -13.890625 L 14.734375 -13.890625 C 14.546875 -14.921875 14.128906 -15.835938 13.484375 -16.640625 C 12.847656 -17.453125 12.054688 -18.082031 11.109375 -18.53125 C 10.171875 -18.976562 9.160156 -19.203125 8.078125 -19.203125 C 6.898438 -19.203125 5.929688 -18.914062 5.171875 -18.34375 C 4.421875 -17.769531 4.046875 -17.0625 4.046875 -16.21875 C 4.046875 -15.582031 4.269531 -15.039062 4.71875 -14.59375 C 5.164062 -14.144531 5.722656 -13.773438 6.390625 -13.484375 C 7.054688 -13.203125 7.976562 -12.867188 9.15625 -12.484375 C 10.332031 -12.097656 11.316406 -11.738281 12.109375 -11.40625 C 12.898438 -11.082031 13.59375 -10.675781 14.1875 -10.1875 C 14.863281 -9.632812 15.414062 -8.96875 15.84375 -8.1875 C 16.28125 -7.414062 16.5 -6.550781 16.5 -5.59375 C 16.5 -4.414062 16.179688 -3.367188 15.546875 -2.453125 C 14.910156 -1.546875 14.015625 -0.84375 12.859375 -0.34375 C 11.710938 0.15625 10.390625 0.40625 8.890625 0.40625 C 7.941406 0.40625 7.144531 0.320312 6.5 0.15625 C 5.851562 -0.0078125 5.191406 -0.226562 4.515625 -0.5 C 3.878906 -0.757812 3.40625 -0.890625 3.09375 -0.890625 C 2.75 -0.890625 2.453125 -0.785156 2.203125 -0.578125 C 1.953125 -0.367188 1.726562 -0.0390625 1.53125 0.40625 L 0.984375 0.40625 L 0.984375 -6.890625 L 1.53125 -6.890625 C 1.882812 -4.960938 2.710938 -3.429688 4.015625 -2.296875 C 5.316406 -1.171875 6.894531 -0.609375 8.75 -0.609375 C 10.132812 -0.609375 11.234375 -0.890625 12.046875 -1.453125 C 12.859375 -2.023438 13.265625 -2.796875 13.265625 -3.765625 C 13.265625 -4.515625 13.023438 -5.148438 12.546875 -5.671875 C 12.078125 -6.191406 11.488281 -6.613281 10.78125 -6.9375 C 10.082031 -7.269531 9.132812 -7.640625 7.9375 -8.046875 C 6.445312 -8.566406 5.242188 -9.050781 4.328125 -9.5 C 3.410156 -9.957031 2.628906 -10.597656 1.984375 -11.421875 C 1.335938 -12.242188 1.015625 -13.28125 1.015625 -14.53125 C 1.015625 -15.632812 1.300781 -16.625 1.875 -17.5 C 2.457031 -18.375 3.257812 -19.0625 4.28125 -19.5625 C 5.300781 -20.070312 6.460938 -20.328125 7.765625 -20.328125 Z M 7.765625 -20.328125 "/></g></g></g><g fill="#0a0034" fill-opacity="1"><g transform="translate(18.042269, 21.659045)"><g><path d="M 7.1875 -13.75 C 8.363281 -13.75 9.4375 -13.46875 10.40625 -12.90625 C 11.382812 -12.351562 12.164062 -11.539062 12.75 -10.46875 C 13.34375 -9.394531 13.640625 -8.113281 13.640625 -6.625 C 13.640625 -5.039062 13.3125 -3.722656 12.65625 -2.671875 C 12 -1.617188 11.179688 -0.84375 10.203125 -0.34375 C 9.234375 0.15625 8.265625 0.40625 7.296875 0.40625 C 6.234375 0.40625 5.203125 0.128906 4.203125 -0.421875 C 3.210938 -0.972656 2.40625 -1.78125 1.78125 -2.84375 C 1.15625 -3.914062 0.84375 -5.207031 0.84375 -6.71875 C 0.84375 -8.070312 1.113281 -9.273438 1.65625 -10.328125 C 2.195312 -11.390625 2.945312 -12.222656 3.90625 -12.828125 C 4.875 -13.441406 5.96875 -13.75 7.1875 -13.75 Z M 5.015625 -7.296875 C 5.015625 -5.554688 5.070312 -4.21875 5.1875 -3.28125 C 5.300781 -2.34375 5.515625 -1.660156 5.828125 -1.234375 C 6.148438 -0.816406 6.617188 -0.609375 7.234375 -0.609375 C 7.796875 -0.609375 8.238281 -0.78125 8.5625 -1.125 C 8.894531 -1.476562 9.128906 -2.046875 9.265625 -2.828125 C 9.398438 -3.609375 9.46875 -4.671875 9.46875 -6.015625 C 9.46875 -7.753906 9.414062 -9.082031 9.3125 -10 C 9.21875 -10.914062 9.003906 -11.597656 8.671875 -12.046875 C 8.347656 -12.503906 7.851562 -12.734375 7.1875 -12.734375 C 6.332031 -12.734375 5.753906 -12.273438 5.453125 -11.359375 C 5.160156 -10.441406 5.015625 -9.085938 5.015625 -7.296875 Z M 5.015625 -7.296875 "/></g></g></g><g fill="#0a0034" fill-opacity="1"><g transform="translate(32.514649, 21.659045)"><g><path d="M 6.078125 -1.9375 C 6.078125 -1.457031 6.191406 -1.097656 6.421875 -0.859375 C 6.660156 -0.628906 7.03125 -0.515625 7.53125 -0.515625 L 7.53125 0 L 0.34375 0 L 0.34375 -0.515625 C 0.945312 -0.515625 1.390625 -0.644531 1.671875 -0.90625 C 1.960938 -1.164062 2.109375 -1.566406 2.109375 -2.109375 L 2.109375 -17.609375 C 2.109375 -18.265625 1.976562 -18.71875 1.71875 -18.96875 C 1.457031 -19.21875 1 -19.351562 0.34375 -19.375 L 0.34375 -19.890625 L 6.078125 -19.890625 Z M 6.078125 -1.9375 "/></g></g></g><g fill="#0a0034" fill-opacity="1"><g transform="translate(40.35868, 21.659045)"><g><path d="M 5.5 -3.96875 C 5.5 -3.113281 5.597656 -2.5 5.796875 -2.125 C 6.003906 -1.75 6.332031 -1.5625 6.78125 -1.5625 C 7.1875 -1.5625 7.585938 -1.710938 7.984375 -2.015625 C 8.390625 -2.328125 8.75 -2.753906 9.0625 -3.296875 L 9.0625 -11.296875 C 9.0625 -11.847656 8.925781 -12.238281 8.65625 -12.46875 C 8.382812 -12.707031 7.960938 -12.851562 7.390625 -12.90625 L 7.390625 -13.4375 L 13.03125 -13.4375 L 13.03125 -1.59375 C 13.03125 -0.957031 13.359375 -0.597656 14.015625 -0.515625 L 14.015625 0 L 9.0625 0 L 9.0625 -1.734375 C 8.519531 -1.097656 7.921875 -0.582031 7.265625 -0.1875 C 6.609375 0.207031 5.929688 0.40625 5.234375 0.40625 C 4.097656 0.40625 3.195312 0.0351562 2.53125 -0.703125 C 1.863281 -1.453125 1.53125 -2.441406 1.53125 -3.671875 L 1.53125 -11.09375 C 1.53125 -11.6875 1.453125 -12.117188 1.296875 -12.390625 C 1.148438 -12.660156 0.863281 -12.832031 0.4375 -12.90625 L 0.4375 -13.4375 L 5.5 -13.4375 Z M 5.5 -3.96875 "/></g></g></g><g fill="#0a0034" fill-opacity="1"><g transform="translate(54.831061, 21.659045)"><g><path d="M 5.609375 -18.265625 L 6.109375 -18.265625 L 6.109375 -13.4375 L 9.171875 -13.4375 L 9.171875 -11.984375 L 6.109375 -11.984375 L 6.109375 -2.71875 C 6.109375 -2.351562 6.1875 -2.015625 6.34375 -1.703125 C 6.5 -1.398438 6.769531 -1.25 7.15625 -1.25 C 7.8125 -1.25 8.367188 -1.703125 8.828125 -2.609375 L 9.171875 -2.140625 C 8.398438 -0.441406 7.175781 0.40625 5.5 0.40625 C 4.414062 0.40625 3.582031 0.0664062 3 -0.609375 C 2.425781 -1.285156 2.140625 -2.101562 2.140625 -3.0625 L 2.140625 -11.984375 L 0.5 -11.984375 L 0.5 -12.5 C 1.414062 -13.15625 2.414062 -14.09375 3.5 -15.3125 C 4.582031 -16.53125 5.285156 -17.515625 5.609375 -18.265625 Z M 5.609375 -18.265625 "/></g></g></g><g fill="#0a0034" fill-opacity="1"><g transform="translate(64.469663, 21.659045)"><g><path d="M 4.078125 -20.328125 C 4.703125 -20.328125 5.226562 -20.109375 5.65625 -19.671875 C 6.09375 -19.234375 6.3125 -18.707031 6.3125 -18.09375 C 6.3125 -17.476562 6.09375 -16.945312 5.65625 -16.5 C 5.226562 -16.0625 4.703125 -15.84375 4.078125 -15.84375 C 3.460938 -15.84375 2.929688 -16.0625 2.484375 -16.5 C 2.046875 -16.945312 1.828125 -17.476562 1.828125 -18.09375 C 1.828125 -18.707031 2.046875 -19.234375 2.484375 -19.671875 C 2.929688 -20.109375 3.460938 -20.328125 4.078125 -20.328125 Z M 6 -2.203125 C 6 -1.097656 6.476562 -0.535156 7.4375 -0.515625 L 7.4375 0 L 0.34375 0 L 0.34375 -0.515625 C 0.945312 -0.515625 1.378906 -0.648438 1.640625 -0.921875 C 1.898438 -1.191406 2.03125 -1.664062 2.03125 -2.34375 L 2.03125 -11.125 C 2.03125 -11.757812 1.90625 -12.210938 1.65625 -12.484375 C 1.40625 -12.765625 0.96875 -12.90625 0.34375 -12.90625 L 0.34375 -13.4375 L 6 -13.4375 Z M 6 -2.203125 "/></g></g></g><g fill="#0a0034" fill-opacity="1"><g transform="translate(72.313695, 21.659045)"><g><path d="M 7.1875 -13.75 C 8.363281 -13.75 9.4375 -13.46875 10.40625 -12.90625 C 11.382812 -12.351562 12.164062 -11.539062 12.75 -10.46875 C 13.34375 -9.394531 13.640625 -8.113281 13.640625 -6.625 C 13.640625 -5.039062 13.3125 -3.722656 12.65625 -2.671875 C 12 -1.617188 11.179688 -0.84375 10.203125 -0.34375 C 9.234375 0.15625 8.265625 0.40625 7.296875 0.40625 C 6.234375 0.40625 5.203125 0.128906 4.203125 -0.421875 C 3.210938 -0.972656 2.40625 -1.78125 1.78125 -2.84375 C 1.15625 -3.914062 0.84375 -5.207031 0.84375 -6.71875 C 0.84375 -8.070312 1.113281 -9.273438 1.65625 -10.328125 C 2.195312 -11.390625 2.945312 -12.222656 3.90625 -12.828125 C 4.875 -13.441406 5.96875 -13.75 7.1875 -13.75 Z M 5.015625 -7.296875 C 5.015625 -5.554688 5.070312 -4.21875 5.1875 -3.28125 C 5.300781 -2.34375 5.515625 -1.660156 5.828125 -1.234375 C 6.148438 -0.816406 6.617188 -0.609375 7.234375 -0.609375 C 7.796875 -0.609375 8.238281 -0.78125 8.5625 -1.125 C 8.894531 -1.476562 9.128906 -2.046875 9.265625 -2.828125 C 9.398438 -3.609375 9.46875 -4.671875 9.46875 -6.015625 C 9.46875 -7.753906 9.414062 -9.082031 9.3125 -10 C 9.21875 -10.914062 9.003906 -11.597656 8.671875 -12.046875 C 8.347656 -12.503906 7.851562 -12.734375 7.1875 -12.734375 C 6.332031 -12.734375 5.753906 -12.273438 5.453125 -11.359375 C 5.160156 -10.441406 5.015625 -9.085938 5.015625 -7.296875 Z M 5.015625 -7.296875 "/></g></g></g><g fill="#0a0034" fill-opacity="1"><g transform="translate(86.786075, 21.659045)"><g><path d="M 9.4375 -13.75 C 10.59375 -13.75 11.472656 -13.359375 12.078125 -12.578125 C 12.691406 -11.796875 13 -10.835938 13 -9.703125 L 13 -2.78125 C 13 -2.21875 13.019531 -1.804688 13.0625 -1.546875 C 13.113281 -1.285156 13.203125 -1.085938 13.328125 -0.953125 C 13.453125 -0.816406 13.671875 -0.671875 13.984375 -0.515625 L 13.984375 0 L 7.8125 0 L 7.8125 -0.515625 C 8.625 -0.617188 9.03125 -1.238281 9.03125 -2.375 L 9.03125 -9.90625 C 9.03125 -11.238281 8.609375 -11.90625 7.765625 -11.90625 C 7.003906 -11.90625 6.269531 -11.351562 5.5625 -10.25 L 5.5625 -2.203125 C 5.5625 -1.234375 5.96875 -0.671875 6.78125 -0.515625 L 6.78125 0 L 0.5 0 L 0.5 -0.515625 C 0.84375 -0.597656 1.109375 -0.773438 1.296875 -1.046875 C 1.492188 -1.316406 1.59375 -1.75 1.59375 -2.34375 L 1.59375 -11.171875 C 1.59375 -11.554688 1.507812 -11.914062 1.34375 -12.25 C 1.175781 -12.59375 0.894531 -12.8125 0.5 -12.90625 L 0.5 -13.4375 L 5.5625 -13.4375 L 5.5625 -11.640625 C 6.175781 -12.347656 6.789062 -12.875 7.40625 -13.21875 C 8.03125 -13.570312 8.707031 -13.75 9.4375 -13.75 Z M 9.4375 -13.75 "/></g></g></g><g fill="#0a0034" fill-opacity="1"><g transform="translate(101.258455, 21.659045)"><g><path d="M 4.8125 -13.75 C 5.289062 -13.75 5.707031 -13.703125 6.0625 -13.609375 C 6.414062 -13.515625 6.847656 -13.367188 7.359375 -13.171875 C 7.742188 -12.992188 8.015625 -12.90625 8.171875 -12.90625 C 8.398438 -12.90625 8.59375 -12.972656 8.75 -13.109375 C 8.914062 -13.242188 9.097656 -13.457031 9.296875 -13.75 L 9.609375 -13.75 L 9.84375 -9.203125 L 9.5 -9.203125 C 9.070312 -10.304688 8.457031 -11.171875 7.65625 -11.796875 C 6.851562 -12.421875 5.976562 -12.734375 5.03125 -12.734375 C 4.476562 -12.734375 4.039062 -12.601562 3.71875 -12.34375 C 3.40625 -12.082031 3.25 -11.75 3.25 -11.34375 C 3.25 -10.84375 3.484375 -10.414062 3.953125 -10.0625 C 4.421875 -9.71875 5.140625 -9.328125 6.109375 -8.890625 C 7.078125 -8.441406 7.859375 -8.023438 8.453125 -7.640625 C 9.054688 -7.253906 9.570312 -6.753906 10 -6.140625 C 10.4375 -5.535156 10.65625 -4.800781 10.65625 -3.9375 C 10.65625 -3.125 10.453125 -2.382812 10.046875 -1.71875 C 9.640625 -1.050781 9.078125 -0.53125 8.359375 -0.15625 C 7.648438 0.21875 6.863281 0.40625 6 0.40625 C 5.457031 0.40625 4.96875 0.347656 4.53125 0.234375 C 4.09375 0.117188 3.644531 -0.0351562 3.1875 -0.234375 C 3.125 -0.253906 2.976562 -0.304688 2.75 -0.390625 C 2.519531 -0.472656 2.328125 -0.515625 2.171875 -0.515625 C 1.828125 -0.515625 1.53125 -0.21875 1.28125 0.375 L 1.015625 0.375 L 0.6875 -4.40625 L 1.015625 -4.40625 C 1.515625 -3.1875 2.171875 -2.25 2.984375 -1.59375 C 3.796875 -0.9375 4.679688 -0.609375 5.640625 -0.609375 C 6.242188 -0.609375 6.742188 -0.769531 7.140625 -1.09375 C 7.535156 -1.425781 7.734375 -1.832031 7.734375 -2.3125 C 7.734375 -2.800781 7.582031 -3.179688 7.28125 -3.453125 C 6.976562 -3.734375 6.507812 -4.050781 5.875 -4.40625 C 5.601562 -4.550781 5.351562 -4.675781 5.125 -4.78125 C 4.894531 -4.894531 4.703125 -4.988281 4.546875 -5.0625 C 3.660156 -5.488281 2.957031 -5.867188 2.4375 -6.203125 C 1.914062 -6.546875 1.460938 -6.992188 1.078125 -7.546875 C 0.703125 -8.109375 0.515625 -8.804688 0.515625 -9.640625 C 0.515625 -10.816406 0.914062 -11.796875 1.71875 -12.578125 C 2.519531 -13.359375 3.550781 -13.75 4.8125 -13.75 Z M 4.8125 -13.75 "/></g></g></g></g></g></g></g></g></g></g></g></svg>